<?xml version="1.0" encoding="utf-8"?>
<!-- Generator: Adobe Illustrator 21.0.0, SVG Export Plug-In . SVG Version: 6.00 Build 0)  -->
<svg version="1.1" id="图层_1" xmlns="http://www.w3.org/2000/svg" xmlns:xlink="http://www.w3.org/1999/xlink" x="0px" y="0px"
	 viewBox="0 0 14 12" style="enable-background:new 0 0 14 12;" xml:space="preserve">
<style type="text/css">
	.st0{fill:#FFFFFF;}
</style>
<title>icon－工商信息</title>
<g id="图层_2">
	<g id="图层_1-2">
		<path class="st0" d="M12.3,0.3H1.7C0.7,0.3,0,1.1,0,2v8c0,0.9,0.7,1.7,1.7,1.7l0,0h10.7c0.9,0,1.7-0.7,1.7-1.7l0,0V2
			C14,1.1,13.3,0.3,12.3,0.3L12.3,0.3z M13.3,10c0,0.6-0.4,1-1,1H1.7c-0.6,0-1-0.4-1-1V2c0-0.6,0.4-1,1-1h10.7c0.6,0,1,0.4,1,1
			L13.3,10L13.3,10z"/>
		<path class="st0" d="M8.4,2.9h3.1c0.2,0,0.3,0.1,0.3,0.3l0,0c0,0.2-0.1,0.3-0.3,0.3H8.4C8.2,3.6,8,3.5,8,3.3l0,0
			C8,3.1,8.2,2.9,8.4,2.9z"/>
		<path class="st0" d="M8.4,5.6h3.1c0.2,0,0.3,0.1,0.3,0.3l0,0c0,0.2-0.1,0.3-0.3,0.3H8.4C8.2,6.3,8,6.1,8,6l0,0
			C8,5.8,8.2,5.6,8.4,5.6z"/>
		<path class="st0" d="M2.7,8.3h8.7c0.2,0,0.3,0.1,0.3,0.3l0,0c0,0.2-0.1,0.3-0.3,0.3H2.7c-0.2,0-0.3-0.1-0.3-0.3l0,0
			C2.4,8.4,2.5,8.3,2.7,8.3z"/>
		<path class="st0" d="M3.2,6.6c0.4-0.8,1.4-1.2,2.2-0.7C6,6.1,6.3,6.7,6.3,7.3H7c0-0.9-0.5-1.7-1.3-2.1c0.4-0.3,0.6-0.8,0.6-1.3
			c0-0.9-0.8-1.7-1.7-1.6C3.7,2.3,3,3.1,3,4c0,0.5,0.2,1,0.6,1.3c-0.8,0.4-1.3,1.2-1.3,2H3C3,7.1,3.1,6.8,3.2,6.6z M3.7,4
			c0-0.6,0.4-1,1-1s1,0.4,1,1s-0.4,1-1,1S3.7,4.6,3.7,4z"/>
	</g>
</g>
</svg>
