<?xml version="1.0" encoding="utf-8"?>
<!-- Generator: Adobe Illustrator 21.0.0, SVG Export Plug-In . SVG Version: 6.00 Build 0)  -->
<svg version="1.1" id="图层_1" xmlns="http://www.w3.org/2000/svg" xmlns:xlink="http://www.w3.org/1999/xlink" x="0px" y="0px"
	 viewBox="0 0 14 12" style="enable-background:new 0 0 14 12;" xml:space="preserve">
<style type="text/css">
	.st0{fill:#2EB6F4;}
</style>
<title>icon－管理员</title>
<g id="图层_2">
	<g id="图层_1-2">
		<path class="st0" d="M11.9,11.6L11.9,11.6c0-2-1.3-3.8-3.1-4.6c1.2-0.6,2-1.9,2-3.3C10.8,1.6,9.1,0,7,0c0,0,0,0,0,0
			C4.9,0,3.2,1.6,3.2,3.7c0,1.4,0.8,2.6,2,3.3C3.3,7.8,2.1,9.6,2,11.6l0,0C2,11.8,2.2,12,2.4,12c0.2,0,0.4-0.2,0.4-0.4
			c0,0,0-0.1,0-0.1c0-2,1.4-3.6,3.3-4c-0.1,0.1,0,0.2,0.1,0.4l0.1,0.1c0.1,0.1,0.1,0.1,0.2,0.1l0,0L6.4,8.8C6.3,8.9,6.3,9,6.3,9.1
			c-0.1,0.2-0.1,0.3,0,0.5l0.4,1.5c0.1,0.5,0.4,0.5,0.5,0l0.5-1.5c0.1-0.2,0.1-0.3,0-0.5c0-0.1,0-0.2-0.1-0.3L7.3,8.2l0,0
			c0.1,0,0.1-0.1,0.2-0.1l0.2-0.2c0.2-0.2,0.2-0.3,0.1-0.4c1.9,0.4,3.3,2.1,3.3,4c0,0.2,0.1,0.4,0.3,0.5s0.4-0.1,0.5-0.3
			C12,11.7,12,11.7,11.9,11.6L11.9,11.6z M3.9,3.7c0-1.6,1.4-3,3.1-2.9c1.6,0,3,1.3,3.1,2.9c0,1.6-1.4,2.9-3,2.9
			C5.4,6.7,4,5.4,3.9,3.7L3.9,3.7z"/>
	</g>
</g>
</svg>
