<?xml version="1.0" encoding="utf-8"?>
<!-- Generator: Adobe Illustrator 21.0.0, SVG Export Plug-In . SVG Version: 6.00 Build 0)  -->
<svg version="1.1" id="图层_1" xmlns="http://www.w3.org/2000/svg" xmlns:xlink="http://www.w3.org/1999/xlink" x="0px" y="0px"
	 viewBox="0 0 14 12" style="enable-background:new 0 0 14 12;" xml:space="preserve">
<style type="text/css">
	.st0{fill:#FFFFFF;}
</style>
<title>icon－设置</title>
<g id="图层_2">
	<g id="图层_1-2">
		<path class="st0" d="M8.9,12c-0.2,0-0.4-0.1-0.5-0.2c0,0-0.8-0.8-1.4-0.8c-0.6,0.1-1.1,0.4-1.4,0.8C5.4,11.9,5.2,12,5,12
			c-0.1,0-0.2,0-0.3-0.1l0,0L3.1,11l0,0c-0.3-0.2-0.3-0.5-0.2-0.8C3,10,3.1,9.7,3.1,9.5c0-1-0.8-1.7-1.8-1.7H1.2
			C1,7.8,0.8,7.6,0.8,7.3C0.7,6.8,0.7,6.4,0.6,6c0-0.4,0.1-0.8,0.1-1.2C0.8,4.4,1,4.2,1.2,4.2h0.1c1,0,1.8-0.8,1.8-1.8l0,0
			C3.1,2.2,3,2,2.9,1.8C2.8,1.5,2.9,1.2,3.1,1l0,0l1.7-0.9l0,0C4.9,0,5,0,5.1,0c0.2,0,0.4,0.1,0.5,0.2C6,0.6,6.5,0.9,7,1
			c0.5-0.1,1-0.4,1.4-0.8C8.6,0.1,8.7,0,9,0c0,0,0.1,0,0.2,0.1l0,0L10.8,1l0,0c0.3,0.2,0.3,0.5,0.2,0.8c0,0.2-0.1,0.4-0.1,0.6
			c0,1,0.8,1.8,1.8,1.8h0.1c0.2,0,0.4,0.2,0.5,0.5c0.1,0.4,0.1,0.8,0.2,1.3c0,0.4-0.1,0.8-0.1,1.2c-0.1,0.3-0.2,0.5-0.5,0.5h-0.1
			c-1,0-1.8,0.8-1.8,1.8c0,0.2,0.1,0.5,0.1,0.7c0.1,0.3,0,0.6-0.2,0.8l0,0l-1.6,0.9l0,0C9.1,12,9,12,8.9,12L8.9,12z M8.8,11.4h0.1
			l0,0l1.6-0.9v-0.1c-0.1-0.3-0.2-0.6-0.2-0.9c0-1.2,1-2.2,2.2-2.3h0.1V7.1c0.1-0.4,0.1-0.8,0.1-1.1c0-0.4-0.1-0.8-0.1-1.1V4.8h-0.1
			c-1.2-0.1-2.2-1.1-2.2-2.3c0-0.3,0.1-0.6,0.2-0.9V1.5L9,0.6l0,0H8.9l0,0C8.7,0.8,8.5,0.9,8.3,1.1C8,1.3,7.5,1.5,7.1,1.5
			C6.6,1.5,6.2,1.3,5.8,1C5.6,0.9,5.4,0.8,5.2,0.6l0,0H5.1l0,0L3.5,1.5v0.1c0.1,0.3,0.2,0.6,0.2,0.9c0,0.6-0.2,1.2-0.6,1.6
			C2.6,4.6,2,4.8,1.4,4.9H1.3V5c0,0.3-0.1,0.6-0.1,1s0.1,0.8,0.1,1.1v0.1h0.1C2,7.2,2.6,7.5,3,7.9s0.6,1,0.6,1.6
			c0,0.3-0.1,0.6-0.2,0.9v0.1L5,11.4l0,0h0.1l0,0c0.2-0.2,0.3-0.4,0.5-0.5c0.4-0.3,0.8-0.5,1.3-0.5s0.9,0.2,1.3,0.5
			C8.4,11,8.6,11.2,8.8,11.4L8.8,11.4L8.8,11.4z M7,8.1c-1.2,0-2.1-1-2.1-2.1s1-2.1,2.1-2.1s2.1,1,2.1,2.1C9.1,7.2,8.1,8.1,7,8.1z
			 M7,4.4C6.1,4.4,5.4,5.1,5.4,6S6.1,7.6,7,7.5c0.9,0,1.5-0.7,1.5-1.5C8.5,5.1,7.8,4.4,7,4.4L7,4.4z"/>
	</g>
</g>
</svg>
