<svg xmlns="http://www.w3.org/2000/svg" viewBox="0 0 12 12"><defs><style>.cls-1{fill:#2eb6f4;}</style></defs><title>icon－已选择</title><g id="图层_2" data-name="图层 2"><g id="图层_1-2" data-name="图层 1"><path class="cls-1" d="M6,12a6,6,0,1,1,6-6A6,6,0,0,1,6,12ZM6,.46A5.54,5.54,0,1,0,11.54,6,5.55,5.55,0,0,0,6,.46Z"/><path class="cls-1" d="M9.12,3.73a.15.15,0,0,0-.11,0l-3.78,4a.13.13,0,0,1-.19,0L3,5.77a.15.15,0,0,0-.22,0,.15.15,0,0,0,0,.22L5,8.22H5l0,0,0,0a.24.24,0,0,0,.1,0l0,0,0,0L9.23,4a.15.15,0,0,0,0-.11.15.15,0,0,0,0-.11A.15.15,0,0,0,9.12,3.73Z"/><path class="cls-1" d="M5.14,8.33H5.07L5,8.27,2.73,6a.21.21,0,0,1,0-.3.21.21,0,0,1,.15-.06A.21.21,0,0,1,3,5.73l2.06,2,.05,0,.05,0L9,3.74a.21.21,0,0,1,.15-.07.21.21,0,0,1,.15.06.21.21,0,0,1,0,.3l-4,4.22,0,0,0,0Zm0-.12h.06l0,0,0,0L9.19,4a.1.1,0,0,0,0-.07.1.1,0,0,0,0-.07.09.09,0,0,0-.07,0h0a.09.09,0,0,0-.07,0l-3.78,4a.19.19,0,0,1-.13.06h0A.19.19,0,0,1,5,7.85l-2.06-2a.11.11,0,0,0-.07,0,.09.09,0,0,0-.07,0,.1.1,0,0,0,0,.13L5.07,8.18h0Z"/></g></g></svg>