<?xml version="1.0" encoding="utf-8"?>
<!-- Generator: Adobe Illustrator 21.0.0, SVG Export Plug-In . SVG Version: 6.00 Build 0)  -->
<svg version="1.1" id="图层_1" xmlns="http://www.w3.org/2000/svg" xmlns:xlink="http://www.w3.org/1999/xlink" x="0px" y="0px"
	 viewBox="0 0 14 12" style="enable-background:new 0 0 14 12;" xml:space="preserve">
<style type="text/css">
	.st0{fill:#2EB6F4;}
</style>
<title>icon－编辑</title>
<g id="图层_2">
	<g id="图层_1-2">
		<path class="st0" d="M4.9,9C5,9.1,5.2,9.1,5.3,9c0,0,0,0,0,0L12,0.5c0.1-0.1,0.1-0.3,0-0.4c-0.1-0.1-0.3-0.1-0.4,0c0,0,0,0,0,0
			L4.9,8.6C4.8,8.7,4.8,8.9,4.9,9z M11.8,6c-0.2,0-0.3,0.1-0.3,0.3c0,0,0,0,0,0v4.6c0,0.3-0.2,0.6-0.5,0.6H3c-0.3,0-0.5-0.3-0.5-0.6
			V2.3C2.5,2,2.7,1.7,3,1.7c0,0,0,0,0,0h3.7C6.9,1.7,7,1.6,7,1.4c0,0,0,0,0,0c0-0.2-0.1-0.3-0.3-0.3c0,0,0,0,0,0H3
			c-0.6,0-1.1,0.5-1.1,1.1c0,0,0,0,0,0v8.6C1.9,11.5,2.4,12,3,12c0,0,0,0,0,0h8c0.6,0,1.1-0.5,1.1-1.1V6.3C12.1,6.1,12,6,11.8,6z"/>
	</g>
</g>
</svg>
