<?xml version="1.0" encoding="utf-8"?>
<!-- Generator: Adobe Illustrator 21.0.0, SVG Export Plug-In . SVG Version: 6.00 Build 0)  -->
<svg version="1.1" id="图层_1" xmlns="http://www.w3.org/2000/svg" xmlns:xlink="http://www.w3.org/1999/xlink" x="0px" y="0px"
	 viewBox="0 0 14 12" style="enable-background:new 0 0 14 12;" xml:space="preserve">
<style type="text/css">
	.st0{fill:#2EB6F4;}
</style>
<title>icon－日历</title>
<g id="图层_2">
	<g id="图层_1-2">
		<path class="st0" d="M11.6,0.9h-1.2V0.3c0-0.1-0.1-0.3-0.3-0.3c0,0,0,0,0,0C9.9,0,9.8,0.1,9.8,0.3c0,0,0,0,0,0v0.6H4.2V0.3
			C4.2,0.1,4.1,0,3.9,0C3.8,0,3.7,0.1,3.7,0.3c0,0,0,0,0,0v0.6H2.4c-0.6,0-1,0.4-1,1V11c0,0.6,0.4,1,1,1h9.2c0.6,0,1-0.4,1-1V1.8
			C12.6,1.3,12.3,0.9,11.6,0.9L11.6,0.9z M12,11c0,0.1,0,0.2-0.1,0.3c-0.1,0.1-0.2,0.1-0.3,0.1H2.4c-0.2,0-0.4-0.1-0.5-0.4
			c0,0,0,0,0-0.1V4.9h10L12,11z M12,4.4H2V1.8c0-0.2,0.2-0.4,0.4-0.4c0,0,0,0,0.1,0h1.2v1c0,0.1,0.1,0.3,0.3,0.3
			c0.1,0,0.3-0.1,0.3-0.3c0,0,0,0,0,0v-1h5.6v1c0,0.1,0.1,0.3,0.3,0.3c0.1,0,0.3-0.1,0.3-0.3v-1h1.2c0.2,0,0.4,0.2,0.4,0.4V4.4z"/>
		<path class="st0" d="M3.9,7.1h6.2c0.1,0,0.3-0.1,0.3-0.3c0-0.1-0.1-0.3-0.3-0.3H3.9c-0.1,0-0.3,0.1-0.3,0.3C3.7,7,3.8,7.1,3.9,7.1
			z"/>
		<path class="st0" d="M3.9,9.8h3.5c0.1,0,0.3-0.1,0.3-0.3S7.6,9.2,7.4,9.2H3.9c-0.1,0-0.3,0.1-0.3,0.3S3.8,9.8,3.9,9.8z"/>
	</g>
</g>
</svg>
