<?xml version="1.0" encoding="utf-8"?>
<!-- Generator: Adobe Illustrator 21.0.0, SVG Export Plug-In . SVG Version: 6.00 Build 0)  -->
<svg version="1.1" id="图层_1" xmlns="http://www.w3.org/2000/svg" xmlns:xlink="http://www.w3.org/1999/xlink" x="0px" y="0px"
	 viewBox="0 0 14 12" style="enable-background:new 0 0 14 12;" xml:space="preserve">
<style type="text/css">
	.st0{fill:#2EB6F4;}
</style>
<title>icon－个人签名</title>
<g id="图层_2">
	<g id="图层_1-2">
		<path class="st0" d="M7.1,9.2H2.7c-0.2,0-0.3,0.2-0.3,0.3c0,0.2,0.1,0.3,0.3,0.3h4.4c0.2,0,0.3-0.2,0.3-0.3
			C7.4,9.4,7.3,9.2,7.1,9.2z"/>
		<path class="st0" d="M7.1,3.7H2.7C2.5,3.7,2.4,3.8,2.4,4c0,0,0,0,0,0c0,0.2,0.1,0.3,0.3,0.3h4.4c0.2,0,0.3-0.2,0.3-0.3
			C7.4,3.8,7.3,3.7,7.1,3.7C7.1,3.7,7.1,3.7,7.1,3.7z"/>
		<path class="st0" d="M7.1,7.4H2.7c-0.2,0-0.3,0.2-0.3,0.3C2.4,7.8,2.5,8,2.7,8h4.4c0.2,0,0.3-0.2,0.3-0.3C7.4,7.5,7.3,7.3,7.1,7.4
			z"/>
		<path class="st0" d="M7.1,5.5H2.7c-0.2,0-0.3,0.2-0.3,0.3c0,0.2,0.1,0.3,0.3,0.3h4.4c0.2,0,0.3-0.2,0.3-0.3
			C7.4,5.7,7.3,5.5,7.1,5.5z"/>
		<path class="st0" d="M7.1,1.8H2.7C2.5,1.8,2.4,2,2.4,2.1c0,0.2,0.1,0.3,0.3,0.3h4.4c0.2,0,0.3-0.2,0.3-0.3C7.4,2,7.3,1.8,7.1,1.8z
			"/>
		<path class="st0" d="M12.8,3.7c-0.3-0.1-0.7,0-0.8,0.4l-1.3,2.3l1,0.5L13,4.6C13.2,4.3,13.1,3.9,12.8,3.7z"/>
		<polygon class="st0" points="8.5,10.6 8.4,12 9.5,11.2 11.7,7.1 10.7,6.5 		"/>
		<path class="st0" d="M9.7,6.6c0.2,0.1,0.3,0,0.4-0.1l1.1-1.9c0.1-0.2,0-0.3-0.1-0.4c-0.2-0.1-0.3,0-0.4,0.1l0,0L9.5,6.2
			C9.5,6.3,9.5,6.5,9.7,6.6z"/>
		<path class="st0" d="M9.7,3.9h0.7V2.8c-0.6-1-1.3-1.9-2-2.8H1.8C1.3,0,0.9,0.4,0.9,0.9c0,0,0,0,0,0v0.8l0,0v9.1
			c0,0.5,0.4,0.9,0.9,0.9c0,0,0,0,0,0h5.9V11H2c-0.2,0-0.4-0.2-0.4-0.4l0,0v-9l0,0V1c0-0.2,0.2-0.4,0.4-0.4h5.5v1.6
			c0,0.3,0.3,0.6,0.6,0.6h1.6V3.9z"/>
	</g>
</g>
</svg>
