<?xml version="1.0" encoding="utf-8"?>
<!-- Generator: Adobe Illustrator 21.0.0, SVG Export Plug-In . SVG Version: 6.00 Build 0)  -->
<svg version="1.1" id="图层_1" xmlns="http://www.w3.org/2000/svg" xmlns:xlink="http://www.w3.org/1999/xlink" x="0px" y="0px"
	 viewBox="0 0 14 12" style="enable-background:new 0 0 14 12;" xml:space="preserve">
<style type="text/css">
	.st0{fill:#2EB6F4;}
</style>
<title>icon－电子签章</title>
<g id="图层_2">
	<g id="图层_1-2">
		<path class="st0" d="M11.4,8.4c-0.7,0-1.5-0.2-2.1-0.6C9,7.7,8.7,7.4,8.5,7.2C8.3,7,8.1,6.7,8.1,6.4l0,0c0-0.1,0-0.2,0-0.3
			c0-0.4,0-0.5,0.7-1.2l0,0c0.6-0.5,1-1.3,1-2.1c0-0.8-0.3-1.5-0.8-2C7.9-0.3,6.1-0.3,5,0.8c-1.1,1-1.1,2.7-0.1,3.8
			C4.9,4.7,5,4.8,5.1,4.9l0,0c0.7,0.7,0.7,0.8,0.7,1.3v0.3c0,0.3-0.1,0.6-0.3,0.8C5.3,7.4,5,7.6,4.7,7.8C4,8.2,3.3,8.4,2.6,8.4
			c-0.4,0-0.8,0.3-0.8,0.8c0,0,0,0,0,0v0.9c0,0.1,0.1,0.2,0.2,0.2h0.3v1.5c0,0.1,0.1,0.2,0.2,0.2h8.8c0.1,0,0.2-0.1,0.2-0.2v-1.5H12
			c0.1,0,0.2-0.1,0.2-0.2V9.2C12.2,8.8,11.9,8.4,11.4,8.4C11.4,8.4,11.4,8.4,11.4,8.4z M11.2,10.4v1.2H2.8v-1.2L11.2,10.4L11.2,10.4
			z M11.8,9.8L11.8,9.8L2.2,9.9V9.2c0-0.2,0.2-0.3,0.3-0.3c0,0,0,0,0,0c0.8,0,1.7-0.3,2.4-0.7c0.9-0.5,1.4-1.1,1.4-1.8V6.1
			c0-0.3,0-0.5-0.1-0.8C6,5.1,5.8,4.8,5.5,4.5l0,0C4.9,4.1,4.6,3.5,4.6,2.8c0-1.3,1.1-2.3,2.4-2.3c1.3,0,2.4,1,2.4,2.3
			c0,0.7-0.3,1.3-0.9,1.8l0,0C7.8,5.3,7.7,5.4,7.7,6c0,0.2,0,0.3,0,0.3l0,0C7.7,7,8.2,7.7,9,8.2c0.7,0.4,1.5,0.7,2.4,0.7
			c0.2,0,0.3,0.1,0.3,0.3c0,0,0,0,0,0L11.8,9.8z"/>
		<path class="st0" d="M6.7,1.1L6.7,1.1C5.9,1.3,5.4,2,5.3,2.7c0,0.4,0.1,0.7,0.3,1c0,0.1,0.1,0.1,0.2,0.1c0,0,0.1,0,0.1,0
			c0.1-0.1,0.1-0.2,0.1-0.3c0,0,0,0,0,0C5.9,3.3,5.8,3,5.8,2.8c0-0.6,0.4-1.1,1-1.2c0.1,0,0.2-0.1,0.2-0.3c0,0,0,0,0,0
			C6.9,1.2,6.8,1.1,6.7,1.1z"/>
	</g>
</g>
</svg>
