<?xml version="1.0" encoding="utf-8"?>
<!-- Generator: Adobe Illustrator 21.0.0, SVG Export Plug-In . SVG Version: 6.00 Build 0)  -->
<svg version="1.1" id="图层_1" xmlns="http://www.w3.org/2000/svg" xmlns:xlink="http://www.w3.org/1999/xlink" x="0px" y="0px"
	 viewBox="0 0 14 12" style="enable-background:new 0 0 14 12;" xml:space="preserve">
<style type="text/css">
	.st0{fill:#D9534F;}
</style>
<title>icon－删除</title>
<g id="图层_2">
	<g id="图层_1-2">
		<path class="st0" d="M3.9,12c-0.8,0-1.4-0.6-1.4-1.4V3.2H1.8V2.8H1.4V2.6c0-0.8,0.6-1.4,1.4-1.4l0,0h1.7l0,0C4.6,0.5,5.2,0,5.8,0
			h2.3c0.6,0,1.2,0.4,1.4,1l0,0h0.1h1.6c0.8,0,1.4,0.6,1.4,1.4v0.2h-0.4v0.4h-0.8v7.5c0,0.8-0.6,1.4-1.4,1.4l0,0H3.9z M2.9,10.6
			c0.1,0.5,0.5,0.9,1,0.9h6.1c0.5,0,0.9-0.4,0.9-0.9V3.2H3L2.9,10.6z M2.8,1.7c-0.5,0-0.9,0.4-0.9,0.9l0,0v0.1h10.2V2.6
			c0-0.5-0.4-0.9-0.9-0.9L2.8,1.7z M5.8,0.5C5.5,0.5,5.2,0.7,5.1,1L5,1.2H9L8.9,1C8.8,0.7,8.5,0.5,8.1,0.5H5.8z M9.3,9.7
			c-0.1,0-0.2-0.1-0.2-0.2V5.2C9.1,5.1,9.2,5,9.3,5s0.3,0.1,0.3,0.3v4.2C9.6,9.6,9.4,9.7,9.3,9.7C9.3,9.7,9.3,9.7,9.3,9.7z M7,9.7
			c-0.1,0-0.2-0.1-0.2-0.2V5.2C6.8,5.1,6.9,5,7,5s0.3,0.1,0.3,0.3v4.2C7.3,9.6,7.1,9.7,7,9.7C7,9.7,7,9.7,7,9.7z M4.7,9.7
			c-0.1,0-0.2-0.1-0.2-0.2V5.2C4.4,5.1,4.6,5,4.7,5C4.8,5,5,5.1,5,5.2v4.2C5,9.6,4.8,9.7,4.7,9.7C4.7,9.7,4.7,9.7,4.7,9.7z"/>
	</g>
</g>
</svg>
