<?xml version="1.0" encoding="utf-8"?>
<!-- Generator: Adobe Illustrator 21.0.0, SVG Export Plug-In . SVG Version: 6.00 Build 0)  -->
<svg version="1.1" id="图层_1" xmlns="http://www.w3.org/2000/svg" xmlns:xlink="http://www.w3.org/1999/xlink" x="0px" y="0px"
	 viewBox="0 0 14 12" style="enable-background:new 0 0 14 12;" xml:space="preserve">
<style type="text/css">
	.st0{fill:#2EB6F4;}
</style>
<title>icon－机构类型</title>
<g id="图层_2">
	<g id="图层_1-2">
		<path class="st0" d="M13.3,11.3H13v-6C13,4.6,12.4,4,11.7,4h-1.3C9.6,4,9,4.6,9,5.3v6H7.7v-10C7.7,0.6,7.1,0,6.3,0h-4
			C1.6,0,1,0.6,1,1.3v10H0.7c-0.2,0-0.3,0.1-0.3,0.3S0.5,12,0.7,12h12.7c0.2,0,0.3-0.1,0.3-0.3S13.5,11.3,13.3,11.3z M7,11.3H1.7
			v-10C1.7,1,2,0.7,2.3,0.7h4C6.7,0.7,7,1,7,1.3l0,0V11.3z M12.3,11.3H9.7v-6c0-0.4,0.3-0.7,0.7-0.7h1.3c0.4,0,0.7,0.3,0.7,0.7l0,0
			V11.3z"/>
		<path class="st0" d="M3.3,2.7H2.7C2.5,2.7,2.3,2.8,2.3,3s0.1,0.3,0.3,0.3h0.7c0.2,0,0.3-0.1,0.3-0.3S3.5,2.7,3.3,2.7z"/>
		<path class="st0" d="M5.3,3.3H6c0.2,0,0.3-0.1,0.3-0.3S6.2,2.7,6,2.7H5.3C5.1,2.7,5,2.8,5,3S5.1,3.3,5.3,3.3z"/>
		<path class="st0" d="M3.3,4.7H2.7C2.5,4.7,2.3,4.8,2.3,5s0.1,0.3,0.3,0.3h0.7c0.2,0,0.3-0.1,0.3-0.3S3.5,4.7,3.3,4.7z"/>
		<path class="st0" d="M6,4.7H5.3C5.1,4.7,5,4.8,5,5s0.1,0.3,0.3,0.3H6c0.2,0,0.3-0.1,0.3-0.3S6.2,4.7,6,4.7z"/>
		<path class="st0" d="M3.3,6.7H2.7C2.5,6.7,2.3,6.8,2.3,7s0.1,0.3,0.3,0.3h0.7c0.2,0,0.3-0.1,0.3-0.3S3.5,6.7,3.3,6.7z"/>
		<path class="st0" d="M6,6.7H5.3C5.1,6.7,5,6.8,5,7s0.1,0.3,0.3,0.3H6c0.2,0,0.3-0.1,0.3-0.3S6.2,6.7,6,6.7z"/>
		<path class="st0" d="M3.3,8.7H2.7C2.5,8.7,2.3,8.8,2.3,9s0.1,0.3,0.3,0.3h0.7c0.2,0,0.3-0.1,0.3-0.3S3.5,8.7,3.3,8.7z"/>
		<path class="st0" d="M6,8.7H5.3C5.1,8.7,5,8.8,5,9s0.1,0.3,0.3,0.3H6c0.2,0,0.3-0.1,0.3-0.3S6.2,8.7,6,8.7z"/>
		<path class="st0" d="M11.3,6.7h-0.7c-0.2,0-0.3,0.1-0.3,0.3s0.1,0.3,0.3,0.3h0.7c0.2,0,0.3-0.1,0.3-0.3S11.5,6.7,11.3,6.7z"/>
		<path class="st0" d="M11.3,8.6h-0.7c-0.2,0-0.3,0.1-0.3,0.3s0.1,0.3,0.3,0.3h0.7c0.2,0,0.3-0.1,0.3-0.3S11.5,8.6,11.3,8.6z"/>
	</g>
</g>
</svg>
